<svg xmlns="http://www.w3.org/2000/svg" viewBox="0 0 40.313 44.344">
    <path d="M36.235,5H26.156a10.079,10.079,0,0,0-9.877,8.065l-.2,0A10.078,10.078,0,0,0,6,23.141V39.266A10.078,10.078,0,0,0,16.078,49.344H26.156a10.079,10.079,0,0,0,9.877-8.065l.2,0A10.078,10.078,0,0,0,46.313,31.2V15.078A10.078,10.078,0,0,0,36.235,5ZM32.2,39.266a6.047,6.047,0,0,1-6.047,6.047H16.078a6.047,6.047,0,0,1-6.047-6.047V23.141a6.047,6.047,0,0,1,6.047-6.047H26.156A6.047,6.047,0,0,1,32.2,23.141ZM42.281,31.2a6.047,6.047,0,0,1-6.047,6.047V23.141A10.078,10.078,0,0,0,26.156,13.063h-5.7a6.047,6.047,0,0,1,5.7-4.031H36.235a6.047,6.047,0,0,1,6.047,6.047Z" transform="translate(-6 -5)"/>
</svg>
