<svg viewBox="0 0 150 150">
  <path d="M2975.952,2968.478v-6.819h-17.636a8.96,8.96,0,0,1-8.834-9.077v-27.3a8.958,8.958,0,0,1,8.834-9.077h44.1a8.96,8.96,0,0,1,8.834,9.077v27.3a8.957,8.957,0,0,1-8.834,9.077h-17.636v6.819h4.412a4.547,4.547,0,0,1,0,9.091H2971.54a4.547,4.547,0,0,1,0-9.091Zm-17.647-15.9q0-.014,44.107-.013.01,0,.011-27.286,0,.013-44.107.013Q2958.306,2925.3,2958.3,2952.582Zm63.97,65.9h8.824c13.4,0,24.265,11.193,24.265,25v18.182a4.479,4.479,0,0,1-4.412,4.546h-48.529a4.479,4.479,0,0,1-4.412-4.546v-18.182C2998.011,3029.671,3008.875,3018.477,3022.275,3018.477Zm-92.647,0h8.824c13.4,0,24.265,11.193,24.265,25v18.182a4.479,4.479,0,0,1-4.412,4.546h-48.529a4.479,4.479,0,0,1-4.412-4.546v-18.182C2905.364,3029.671,2916.228,3018.477,2929.628,3018.477Zm97.059-6.818a18.19,18.19,0,1,1,17.647-18.181A17.921,17.921,0,0,1,3026.687,3011.659Zm-92.647,0a18.19,18.19,0,1,1,17.647-18.181A17.921,17.921,0,0,1,2934.04,3011.659Z" transform="translate(-2905.364 -2916.205)"/>
</svg>
