<svg xmlns="http://www.w3.org/2000/svg" viewBox="0 0 87.68 68.183">
  <path d="M42.677,19.942,14.614,43.055V68a2.435,2.435,0,0,0,2.435,2.435l17.057-.044a2.435,2.435,0,0,0,2.423-2.435V53.389a2.435,2.435,0,0,1,2.435-2.435h9.742a2.435,2.435,0,0,1,2.435,2.435V67.946a2.435,2.435,0,0,0,2.435,2.443l17.051.047A2.435,2.435,0,0,0,73.063,68V43.039l-28.057-23.1A1.855,1.855,0,0,0,42.677,19.942Zm44.328,15.71L74.28,25.163V4.08a1.827,1.827,0,0,0-1.827-1.827H63.93A1.827,1.827,0,0,0,62.1,4.08V15.132L48.476,3.92a7.306,7.306,0,0,0-9.285,0L.662,35.652a1.827,1.827,0,0,0-.244,2.572L4.3,42.943a1.827,1.827,0,0,0,2.574.248L42.677,13.7a1.855,1.855,0,0,1,2.329,0l35.8,29.489a1.827,1.827,0,0,0,2.572-.244l3.881-4.719a1.827,1.827,0,0,0-.259-2.577Z" transform="translate(0.001 -2.254)"/>
</svg>
