<svg  xmlns="http://www.w3.org/2000/svg" viewBox="0 0 37.06 35.981">
  <g  data-name="Group 6">
    <circle  data-name="Ellipse 3" cx="6.924" cy="6.924" r="6.924" transform="translate(10.945 13.848) rotate(-89.496)"/>
    <path  data-name="Path 14" d="M45.746,10.895A3.017,3.017,0,0,0,41.984,12.8L40.4,17.764a8.373,8.373,0,0,1-5.125,5.288,9.888,9.888,0,0,1-3.544.6h-6.76A8.281,8.281,0,0,0,18,27.523l-6.815,10.9a2.978,2.978,0,0,0,.927,4.089,2.78,2.78,0,0,0,1.581.436,3.055,3.055,0,0,0,2.562-1.417l5.234-8.341v8.45A1.838,1.838,0,0,0,23.339,43.5H33.97a1.838,1.838,0,0,0,1.854-1.854V29.1a14.615,14.615,0,0,0,1.472-.382,14.251,14.251,0,0,0,8.723-9.05L47.6,14.711A2.9,2.9,0,0,0,45.746,10.895Z" transform="translate(-10.73 -7.516)"/>
  </g>
</svg>
