<svg id="undraw_Chat_bot_re_e2gj" xmlns="http://www.w3.org/2000/svg" width="552" height="456.718" viewBox="0 0 552 456.718">
  <g id="person" transform="translate(404.654 103.236)">
    <path d="M325.708,303.381c3.527-4.57,8.511-8.8,8.826-14.437.289-5.172-3.567-10.307-1.941-15.255,1.251-3.8,5.376-6.1,9.408-7.316a36.563,36.563,0,0,1,23.5.9l-.408-.288c4.589-1.635,9.953.053,13.564,3.179s5.757,7.458,7.422,11.8,2.955,8.842,5.269,12.913,5.856,7.772,10.53,9.179c-1.565,3.121-6.456,4.192-9.325,2.041a11.793,11.793,0,0,1-1.962-2.028l-5.74-6.979c-1.969,3.5.972,8.334-1.448,11.575-1.248,1.672-3.527,2.306-5.643,2.762a102.081,102.081,0,0,1-49.94-1.852c-1.3-.385-2.745-.914-3.286-2.1C323.907,306.12,324.781,304.583,325.708,303.381Z" transform="translate(-261.364 -264.859)" fill="#222"/>
    <path d="M423.207,330.53a8.863,8.863,0,0,1,.2,1.381l36.158,20.859,8.789-5.06,9.369,12.266-14.688,10.468a6.734,6.734,0,0,1-8.079-.2l-37.285-29.414a8.836,8.836,0,1,1,5.535-10.3Z" transform="translate(-405.769 -274.175)" fill="#fff"/>
    <path d="M385.455,356.191l11.686,15.146a3.788,3.788,0,0,0,5.727.314L416.1,357.913a10.519,10.519,0,1,0-12.9-16.619L386.6,350.571a3.788,3.788,0,0,0-1.149,5.619Z" transform="translate(-330.449 -276.608)" fill="#ef6c00"/>
    <path d="M256.514,452.782H246.195l-4.909-39.8h15.23Z" transform="translate(-185.426 -109.302)" fill="#fff"/>
    <path d="M436.944,668.929H416.621a12.951,12.951,0,0,0-12.951,12.95v.422h33.274Z" transform="translate(-363.223 -328.818)" fill="#222"/>
    <path d="M172.514,452.782H162.195l-4.909-39.8h15.23Z" transform="translate(-30.722 -109.302)" fill="#fff"/>
    <path d="M352.944,668.929H332.621a12.952,12.952,0,0,0-12.951,12.95v.422h33.274Z" transform="translate(-208.519 -328.818)" fill="#222"/>
    <ellipse cx="17.834" cy="17.834" rx="17.834" ry="17.834" transform="translate(79.231 50.623) rotate(-96.265)" fill="#fff"/>
    <path d="M351.958,333.391l-10.507,5.2s-11.739,20.4-5.005,39.76c3.269,9.4-5.937,39.361-5.937,39.361s-14.264,135.715-14.309,177.6c17.721,2.725,34.555,6.091,35.4-2.326s10.056-107.939,10.056-107.939S374.323,595.518,384.423,597.2s30.3-.842,30.3-.842-16.038-161.808-26.98-171.909l-1.683-8.417.045-75.555L373.5,334.463Z" transform="translate(-267.379 -275.707)" fill="#ef6c00"/>
    <path d="M351.958,333.391l-10.507,5.2s-11.739,20.4-5.005,39.76c3.269,9.4-5.937,39.361-5.937,39.361s-5.587,26.42-3.951,39.365c17.721,2.725,72.278,11.692,72.278,11.692s-.148-34.223-11.09-44.323l-1.683-8.417.045-75.555L373.5,334.463Z" transform="translate(-267.379 -275.707)" fill="#ffca28"/>
    <path d="M345.1,451.647a9.042,9.042,0,0,1-2.77-13.586l-12.219-81.446,15.964-.766,9.525,81.109a9.091,9.091,0,0,1-10.5,14.689Z" transform="translate(-222.941 -279.262)" fill="#fff"/>
    <path d="M340.641,374.562l19.092-1.205a3.788,3.788,0,0,0,3.466-4.57l-3.978-18.653a10.519,10.519,0,1,0-20.993,1.387l-1.6,18.943a3.788,3.788,0,0,0,4.013,4.1Z" transform="translate(-233.12 -276.802)" fill="#ef6c00"/>
    <path d="M355.436,285.58c.7-3.152,2.952-5.764,5.553-7.677a22.74,22.74,0,0,1,29.07,1.768,14.855,14.855,0,0,1,4.49,7.2,8.826,8.826,0,0,1-1.881,8.037l-.356.223a3.212,3.212,0,0,0-2.013-3.344,16.083,16.083,0,0,0-4.106-.921,15.1,15.1,0,0,1-10.232-7.221,17.048,17.048,0,0,1-9.77,10.182c-2.357.922-8.831,2.189-11.075,1.019C352.251,293.349,354.74,288.733,355.436,285.58Z" transform="translate(-279.113 -266.224)" fill="#222"/>
  </g>
  <g id="computer_screen">
    <path d="M835.447,289.249h-350.8A9.655,9.655,0,0,0,475,298.9V494.362a9.655,9.655,0,0,0,9.655,9.655h350.8a9.655,9.655,0,0,0,9.655-9.655V298.9a9.655,9.655,0,0,0-9.655-9.655Z" transform="translate(-460.286 -289.249)" fill="#ffa726"/>
    <rect width="344.216" height="194.174" transform="translate(27.656 17.064)" fill="#9b9b9b"/>
    <circle cx="3.53" cy="3.53" r="3.53" transform="translate(195.939 4.707)" fill="#ffca28"/>
    <path d="M848.443,585H814.851v-2.42a.48.48,0,0,0-.48-.48H802.853a.48.48,0,0,0-.48.48V585h-7.2v-2.42a.48.48,0,0,0-.48-.48H783.177a.48.48,0,0,0-.48.48h0V585h-7.2v-2.42a.48.48,0,0,0-.48-.48H763.5a.48.48,0,0,0-.48.48h0V585h-7.2v-2.42a.48.48,0,0,0-.48-.48H743.825a.48.48,0,0,0-.48.48V585h-7.2v-2.42a.48.48,0,0,0-.48-.48H724.149a.48.48,0,0,0-.48.48h0V585h-7.2v-2.42a.48.48,0,0,0-.48-.48H704.472a.48.48,0,0,0-.48.48h0V585h-7.2v-2.42a.48.48,0,0,0-.48-.48H606.092a.48.48,0,0,0-.48.48h0V585h-7.2v-2.42a.48.48,0,0,0-.48-.48H586.416a.48.48,0,0,0-.48.48h0V585h-7.2v-2.42a.48.48,0,0,0-.48-.48H566.74a.48.48,0,0,0-.48.48h0V585h-7.2v-2.42a.48.48,0,0,0-.48-.48H547.064a.48.48,0,0,0-.48.48h0V585h-7.2v-2.42a.48.48,0,0,0-.48-.48H527.388a.48.48,0,0,0-.48.48h0V585h-7.2v-2.42a.48.48,0,0,0-.48-.48H507.712a.48.48,0,0,0-.48.48V585h-7.2v-2.42a.48.48,0,0,0-.48-.48H488.036a.48.48,0,0,0-.48.48h0V585H465.48a11.518,11.518,0,0,0-11.518,11.518v5.208a11.518,11.518,0,0,0,11.518,11.518H848.444a11.518,11.518,0,0,0,11.518-11.518v-5.209A11.518,11.518,0,0,0,848.444,585Z" transform="translate(-453.962 -377.29)" fill="#ef6c00"/>
  </g>
</svg>
