<svg viewBox="0 0 135.12 143.107">
  <g transform="translate(-7.339 -6)">
    <path d="M82.117,63.012c-1.6-2.74-3.125-5.352-3.074-7.394v-.283c.128-8.867.259-11.192.31-11.785a7.1,7.1,0,0,0-5.942-7.781,6.96,6.96,0,0,0-8.145,5.143l-.074.31a49.038,49.038,0,0,0-.805,7.936L47.562,32.334a7.7,7.7,0,0,0-5.53-2.2,7.414,7.414,0,0,0-5.4,2.51,7.681,7.681,0,0,0,.465,10.569l8.738,8.709a7.482,7.482,0,0,0-3.491,9.693A6.953,6.953,0,0,0,39.808,63.3a7.49,7.49,0,0,0-2.221,5.325,7.359,7.359,0,0,0,.593,2.919,7.9,7.9,0,0,0-2.352,1.577l-.078.1A7.571,7.571,0,0,0,33.5,78.569a7.474,7.474,0,0,0,2.224,5.325L46.555,94.752A22.3,22.3,0,0,0,62.4,101.29h.027A22.28,22.28,0,0,0,78.319,94.7C92.379,80.588,86.461,70.43,82.117,63.012Z" transform="translate(51.839 47.817)" />
    <path d="M142.459,97.141V8.981A2.992,2.992,0,0,0,139.478,6H10.321A2.992,2.992,0,0,0,7.339,8.981v88.16a2.992,2.992,0,0,0,2.981,2.981H89.152a1.392,1.392,0,0,1,.149-.3L84.71,95.263a13.667,13.667,0,0,1-.656-18.813,13.314,13.314,0,0,1,9.66-4.472h.03a13.863,13.863,0,0,1,9.865,3.965l8.706,8.706a12.709,12.709,0,0,1,11.538-7.155,13.658,13.658,0,0,1,2.478.239,13.021,13.021,0,0,1,10.793,14.191c0,.209-.119,1.729-.238,8.2h2.594A2.992,2.992,0,0,0,142.459,97.141ZM36.828,84.291a2.585,2.585,0,0,1-2.564,2.564H25.347a2.563,2.563,0,0,1-2.561-2.564V75.377a2.563,2.563,0,0,1,2.561-2.564h8.917a2.585,2.585,0,0,1,2.564,2.564Zm0-26.773a2.585,2.585,0,0,1-2.564,2.564H25.347a2.563,2.563,0,0,1-2.561-2.564V48.6a2.544,2.544,0,0,1,2.561-2.564h8.917A2.566,2.566,0,0,1,36.828,48.6Zm0-26.773a2.585,2.585,0,0,1-2.564,2.564H25.347a2.563,2.563,0,0,1-2.561-2.564V21.831a2.544,2.544,0,0,1,2.561-2.564h8.917a2.566,2.566,0,0,1,2.564,2.564ZM66.881,84.291a2.566,2.566,0,0,1-2.564,2.564H55.4a2.582,2.582,0,0,1-2.561-2.564V75.377A2.582,2.582,0,0,1,55.4,72.813h8.917a2.566,2.566,0,0,1,2.564,2.564Zm0-26.773a2.566,2.566,0,0,1-2.564,2.564H55.4a2.582,2.582,0,0,1-2.561-2.564V48.6A2.563,2.563,0,0,1,55.4,46.04h8.917A2.547,2.547,0,0,1,66.881,48.6Zm0-26.773a2.566,2.566,0,0,1-2.564,2.564H55.4a2.583,2.583,0,0,1-2.561-2.564V21.831A2.563,2.563,0,0,1,55.4,19.267h8.917a2.547,2.547,0,0,1,2.564,2.564ZM96.963,57.518A2.585,2.585,0,0,1,94.4,60.082H85.482a2.563,2.563,0,0,1-2.561-2.564V48.6a2.544,2.544,0,0,1,2.561-2.564H94.4A2.566,2.566,0,0,1,96.963,48.6Zm0-26.773A2.585,2.585,0,0,1,94.4,33.31H85.482a2.563,2.563,0,0,1-2.561-2.564V21.831a2.544,2.544,0,0,1,2.561-2.564H94.4a2.566,2.566,0,0,1,2.564,2.564Zm30.052,26.773a2.564,2.564,0,0,1-2.564,2.564h-8.917a2.583,2.583,0,0,1-2.561-2.564V48.6a2.563,2.563,0,0,1,2.561-2.564h8.917a2.545,2.545,0,0,1,2.564,2.564Zm0-26.773a2.564,2.564,0,0,1-2.564,2.564h-8.917a2.583,2.583,0,0,1-2.561-2.564V21.831a2.563,2.563,0,0,1,2.561-2.564h8.917a2.545,2.545,0,0,1,2.564,2.564Z" transform="translate(0 0)" />
  </g>
</svg>
